<?xml version="1.0" standalone="no"?>
<!DOCTYPE svg PUBLIC "-//W3C//DTD SVG 20010904//EN"
 "http://www.w3.org/TR/2001/REC-SVG-20010904/DTD/svg10.dtd">
<svg version="1.0" xmlns="http://www.w3.org/2000/svg"
 width="500.000000pt" height="500.000000pt" viewBox="0 0 500.000000 500.000000"
 preserveAspectRatio="xMidYMid meet">

<g transform="translate(0.000000,500.000000) scale(0.100000,-0.100000)"
fill="#000000" stroke="none">
<path d="M0 2500 l0 -2500 2500 0 2500 0 0 2500 0 2500 -2500 0 -2500 0 0
-2500z m710 110 l0 -410 -70 0 -70 0 0 403 c0 222 3 407 7 410 3 4 35 7 70 7
l63 0 0 -410z m2280 185 l0 -225 40 0 40 0 90 135 90 135 70 0 c41 0 70 -4 70
-10 0 -6 -36 -64 -80 -130 -44 -66 -80 -122 -80 -125 0 -3 36 -5 80 -5 l80 0
0 -185 0 -185 -70 0 -70 0 0 130 0 130 -130 0 -130 0 0 -130 0 -130 -70 0 -70
0 0 410 0 410 70 0 70 0 0 -225z m852 -52 l128 -128 130 130 130 130 60 -60
60 -59 -87 -88 -88 -88 173 0 172 0 0 -80 0 -80 -172 0 -173 0 88 -88 87 -88
-60 -59 -60 -60 -130 130 -130 130 -130 -130 -130 -130 -55 55 c-30 30 -55 59
-55 64 0 6 37 48 82 93 l83 83 -173 0 -172 0 0 85 0 85 172 0 173 0 -85 85
-84 85 54 55 c30 30 57 55 60 55 2 0 62 -57 132 -127z m-1897 86 c77 -29 155
-107 185 -186 18 -47 21 -73 18 -138 -5 -96 -28 -146 -97 -215 -144 -144 -405
-108 -446 63 -4 15 -13 27 -21 27 -9 0 -12 -9 -9 -27 3 -16 9 -55 15 -87 5
-33 10 -122 10 -198 l0 -138 -70 0 -70 0 0 455 0 455 64 0 c36 0 67 -3 69 -7
3 -5 -1 -43 -8 -85 -14 -90 -1 -105 28 -34 50 121 188 169 332 115z m-1033
-196 c3 -180 6 -213 22 -247 45 -90 200 -101 281 -20 45 45 55 100 55 305 l0
170 68 -3 67 -3 3 -317 2 -318 -71 0 -72 0 6 38 c17 105 19 142 10 142 -6 0
-18 -20 -27 -45 -33 -84 -118 -135 -227 -135 -113 0 -187 46 -230 143 -22 48
-24 68 -27 260 -2 114 -1 215 2 222 4 11 23 15 70 15 l64 0 4 -207z m1715 177
c39 -22 77 -66 98 -115 5 -11 11 -99 14 -195 6 -169 7 -175 29 -185 19 -8 22
-17 22 -62 l0 -53 -35 0 c-75 0 -108 35 -121 128 -3 29 -10 52 -13 52 -4 0
-15 -18 -25 -40 -21 -49 -74 -102 -124 -126 -57 -28 -159 -30 -214 -6 -67 29
-101 80 -106 157 -9 145 81 211 342 249 54 8 100 16 101 18 2 2 -3 18 -11 36
-17 43 -71 66 -131 58 -80 -11 -101 -29 -127 -108 -4 -15 -17 -18 -71 -18
l-65 0 0 35 c0 77 72 162 160 190 30 10 77 14 140 12 79 -2 102 -7 137 -27z
m-386 -2582 c8 -30 3 -38 -23 -38 -14 0 -18 8 -18 36 0 28 4 35 17 32 9 -2 20
-15 24 -30z m90 16 c11 -13 9 -14 -15 -8 -23 6 -27 4 -24 -11 1 -10 9 -20 17
-23 8 -3 11 0 7 7 -4 6 -1 11 8 11 9 0 16 -7 16 -16 0 -11 -8 -14 -27 -12 -21
2 -29 9 -31 27 -6 36 26 53 49 25z m94 -52 c-3 -4 -10 0 -16 8 -8 13 -10 13
-18 0 -19 -28 -22 -2 -5 32 l17 33 14 -34 c8 -18 11 -36 8 -39z m131 53 c4 -8
1 -22 -5 -29 -9 -11 -9 -15 1 -19 7 -3 3 -6 -9 -6 -28 -1 -29 6 -5 32 16 19
16 20 0 14 -18 -6 -24 3 -11 16 11 11 23 8 29 -8z m82 -23 c3 -26 0 -32 -17
-32 -24 0 -37 35 -20 56 18 22 34 12 37 -24z m81 24 c9 -10 7 -17 -5 -27 -15
-12 -14 -14 3 -20 14 -6 12 -8 -11 -8 -28 -1 -28 0 -13 17 21 23 22 36 2 28
-15 -5 -20 5 -8 17 10 10 19 8 32 -7z m81 4 c0 -5 -5 -10 -12 -10 -6 0 -3 -6
8 -14 15 -11 16 -17 7 -27 -17 -17 -43 -3 -43 24 0 13 3 27 7 30 10 11 33 8
33 -3z"/>
<path d="M3912 2557 l-52 -53 58 -57 58 -57 54 55 54 55 -54 55 c-30 30 -57
55 -60 55 -3 0 -29 -24 -58 -53z"/>
<path d="M1731 2727 c-49 -15 -107 -75 -120 -122 -39 -140 21 -259 143 -285
161 -33 268 65 253 232 -13 146 -131 221 -276 175z"/>
<path d="M2480 2499 c-158 -26 -217 -79 -179 -162 26 -56 121 -68 188 -24 41
27 85 101 97 165 6 30 5 32 -22 31 -16 -1 -54 -5 -84 -10z"/>
<path d="M2210 210 c0 -5 5 -10 10 -10 6 0 10 5 10 10 0 6 -4 10 -10 10 -5 0
-10 -4 -10 -10z"/>
<path d="M2610 220 c0 -11 5 -20 10 -20 6 0 10 9 10 20 0 11 -4 20 -10 20 -5
0 -10 -9 -10 -20z"/>
<path d="M2770 210 c0 -5 5 -10 10 -10 6 0 10 5 10 10 0 6 -4 10 -10 10 -5 0
-10 -4 -10 -10z"/>
</g>
</svg>
